<svg width="40" height="40" viewBox="0 0 40 40" fill="none" xmlns="http://www.w3.org/2000/svg">
<path d="M32.5 6.25H7.5C5.42893 6.25 3.75 7.92893 3.75 10V30C3.75 32.0711 5.42893 33.75 7.5 33.75H32.5C34.5711 33.75 36.25 32.0711 36.25 30V10C36.25 7.92893 34.5711 6.25 32.5 6.25Z" stroke="#D9D9D9" stroke-width="2.5" stroke-linejoin="round"/>
<path d="M26.25 16.25C27.6307 16.25 28.75 15.1307 28.75 13.75C28.75 12.3693 27.6307 11.25 26.25 11.25C24.8693 11.25 23.75 12.3693 23.75 13.75C23.75 15.1307 24.8693 16.25 26.25 16.25Z" stroke="#D9D9D9" stroke-width="2.5" stroke-miterlimit="10"/>
<path d="M23.75 26.2336L16.6672 19.164C16.2165 18.7134 15.6107 18.452 14.9737 18.4331C14.3366 18.4142 13.7164 18.6394 13.2398 19.0625L3.75 27.5M17.5 33.75L27.1359 24.114C27.5766 23.6725 28.1665 23.4116 28.7896 23.3827C29.4128 23.3538 30.0242 23.5589 30.5039 23.9578L36.25 28.75" stroke="#D9D9D9" stroke-width="2.5" stroke-linecap="round" stroke-linejoin="round"/>
</svg>
