<svg width="40" height="40" viewBox="0 0 40 40" fill="none" xmlns="http://www.w3.org/2000/svg">
<path d="M25.6938 16.4594L18.1938 11.4594C18.0055 11.3337 17.7866 11.2616 17.5605 11.2507C17.3344 11.2397 17.1096 11.2903 16.91 11.3972C16.7105 11.504 16.5437 11.663 16.4274 11.8573C16.3112 12.0515 16.2499 12.2736 16.25 12.5V22.5C16.2499 22.7264 16.3112 22.9485 16.4274 23.1427C16.5437 23.337 16.7105 23.496 16.91 23.6028C17.1096 23.7097 17.3344 23.7603 17.5605 23.7493C17.7866 23.7384 18.0055 23.6663 18.1938 23.5406L25.6938 18.5406C25.8652 18.4265 26.0058 18.2718 26.1031 18.0903C26.2003 17.9087 26.2512 17.706 26.2512 17.5C26.2512 17.294 26.2003 17.0913 26.1031 16.9097C26.0058 16.7282 25.8652 16.5735 25.6938 16.4594ZM18.75 20.1641V14.8438L22.7469 17.5L18.75 20.1641ZM33.75 6.25H6.25C5.58696 6.25 4.95107 6.51339 4.48223 6.98223C4.01339 7.45107 3.75 8.08696 3.75 8.75V26.25C3.75 26.913 4.01339 27.5489 4.48223 28.0178C4.95107 28.4866 5.58696 28.75 6.25 28.75H33.75C34.413 28.75 35.0489 28.4866 35.5178 28.0178C35.9866 27.5489 36.25 26.913 36.25 26.25V8.75C36.25 8.08696 35.9866 7.45107 35.5178 6.98223C35.0489 6.51339 34.413 6.25 33.75 6.25ZM33.75 26.25H6.25V8.75H33.75V26.25ZM36.25 32.5C36.25 32.8315 36.1183 33.1495 35.8839 33.3839C35.6495 33.6183 35.3315 33.75 35 33.75H5C4.66848 33.75 4.35054 33.6183 4.11612 33.3839C3.8817 33.1495 3.75 32.8315 3.75 32.5C3.75 32.1685 3.8817 31.8505 4.11612 31.6161C4.35054 31.3817 4.66848 31.25 5 31.25H35C35.3315 31.25 35.6495 31.3817 35.8839 31.6161C36.1183 31.8505 36.25 32.1685 36.25 32.5Z" fill="#D9D9D9"/>
</svg>
